<svg width="100" height="100" viewBox="0 0 100 100" fill="none" xmlns="http://www.w3.org/2000/svg">
<path d="M7.34419 54.2799C4.98049 51.9162 4.98049 48.0839 7.34419 45.7202L45.7201 7.34422C48.0838 4.98053 51.9161 4.98053 54.2798 7.34422L92.6558 45.7202C95.0195 48.0839 95.0195 51.9162 92.6558 54.2799L54.2798 92.6558C51.9161 95.0195 48.0838 95.0195 45.7201 92.6558L7.34419 54.2799ZM24.072 35.4009C23.1872 37.023 22.4499 38.6451 21.86 40.341L27.0213 42.1106C27.4637 40.7834 28.1273 39.3825 28.8646 38.129C29.8232 36.4332 31.0029 34.811 32.4038 33.3364V40.7097L21.4176 58.4056L21.86 59.659C23.9983 65.7789 28.1273 71.1614 33.6573 74.7005L37.8601 77.5024V61.2074H32.4038V66.6636C30.2656 64.4517 28.6434 61.871 27.4637 59.0692L37.8601 42.2581V22.4977L33.6573 25.2258C29.6757 27.8064 26.3577 31.3456 24.072 35.4009ZM56.6396 78.3543L58.6714 77.9189V47.297H46.6983V26.4712C48.8752 26.1809 51.1247 26.1809 53.3016 26.4712V40.7663H58.6714V22.1174L56.6396 21.6094C52.2857 20.5935 47.7142 20.5935 43.433 21.6094L41.3286 22.1174V52.6667H53.3016V73.4925C51.1247 73.8554 48.8752 73.8554 46.6983 73.4925V59.1975H41.3286V77.9189L43.433 78.3543C45.5373 78.8623 47.7868 79.1525 50.0363 79.1525C52.2132 79.1525 54.4627 78.8623 56.6396 78.3543ZM78.5823 41.5945L78.1399 40.341C76.0754 34.2212 71.8726 28.8387 66.3427 25.2258L62.1399 22.4976V38.7926H67.5961V33.3364C69.7344 35.5484 71.4302 38.129 72.5362 40.9309L62.1399 57.742V77.5024L66.3427 74.7005C70.3242 72.1936 73.6422 68.6544 75.928 64.5254C76.8128 62.977 77.6238 61.3549 78.1399 59.659L72.9786 57.8894C72.5362 59.2166 71.9464 60.6175 71.209 61.871C70.1768 63.5669 68.9971 65.189 67.5961 66.6636V59.2903L78.5823 41.5945ZM99.9911 50.4745L99.9643 50.962C99.9634 50.9789 99.962 50.9958 99.9603 51.0126L99.9123 51.4986C99.9105 51.5161 99.9084 51.5336 99.9058 51.5511L99.8358 52.0343C99.8332 52.0525 99.8302 52.0705 99.8267 52.0884L99.7343 52.5677C99.7307 52.5863 99.7266 52.6047 99.7222 52.623L99.6066 53.0973C99.6022 53.1162 99.5972 53.1348 99.5917 53.1532L99.4529 53.6213C99.4474 53.6401 99.4414 53.6587 99.4349 53.6772L99.2729 54.1378C99.2663 54.1563 99.2593 54.1748 99.2519 54.1931L99.0669 54.6448C99.0594 54.6631 99.0514 54.6812 99.0431 54.6991L98.8355 55.1411C98.8272 55.1589 98.8184 55.1763 98.8091 55.1936L98.5797 55.6245C98.5705 55.6416 98.561 55.6584 98.5512 55.6749L98.3007 56.0942C98.291 56.1103 98.2809 56.1263 98.2704 56.142L98 56.5485C97.9898 56.5639 97.9793 56.5789 97.9684 56.5937L97.679 56.9871C97.6686 57.0014 97.6577 57.0155 97.6466 57.0293L97.3397 57.409C97.3289 57.4223 97.3179 57.4354 97.3066 57.4482L96.9834 57.8141C96.9726 57.8264 96.9615 57.8384 96.9501 57.8502L96.612 58.2025L96.198 58.6169L95.8526 58.9621L89.6379 65.1767L86.8759 67.9389L86.5307 68.2841L86.1853 68.6293L85.8401 68.9747L85.4949 69.3199L85.1495 69.6651L84.8043 70.0103L84.4591 70.3557L84.1139 70.7009L82.3875 72.4271L78.9349 75.8798L78.5897 76.2252L66.1605 88.6544L64.7792 90.0354L64.434 90.3808L64.0888 90.726L63.7434 91.0712L59.9456 94.869L58.2194 96.5955L57.9105 96.894C57.8998 96.9045 57.8888 96.9148 57.8777 96.9247L57.5139 97.2503C57.5013 97.2616 57.4884 97.2727 57.4754 97.2834L57.0977 97.5931C57.0841 97.6043 57.0702 97.6152 57.0559 97.6258L56.6649 97.9179C56.6502 97.9288 56.6353 97.9394 56.6201 97.9496L56.2158 98.2232C56.2002 98.2338 56.1843 98.244 56.1682 98.2537L55.7512 98.5075C55.7346 98.5176 55.7179 98.5272 55.7009 98.5363L55.2718 98.7693C55.2547 98.7786 55.2373 98.7875 55.2195 98.796L54.7793 99.007C54.7616 99.0156 54.7436 99.0238 54.7255 99.0314L54.2751 99.2201C54.2568 99.2276 54.2384 99.2347 54.2199 99.2414L53.7607 99.4071C53.7422 99.4138 53.7237 99.42 53.705 99.4256L53.2379 99.5683C53.2194 99.5739 53.2007 99.5791 53.182 99.5838L52.7085 99.7031C52.6902 99.7076 52.6718 99.7118 52.6532 99.7156L52.1747 99.8116C52.1567 99.8152 52.1385 99.8185 52.1202 99.8213L51.6376 99.8947C51.62 99.8974 51.6024 99.8997 51.5848 99.9016L51.0993 99.9532C51.0822 99.955 51.0652 99.9564 51.0481 99.9575L50.5609 99.9877C50.5446 99.9888 50.5282 99.9895 50.5118 99.9898L50.0238 99.9996C50.0093 100 49.9947 100 49.98 99.9998L49.5704 99.9928C49.5555 99.9925 49.5406 99.992 49.5257 99.9912L49.038 99.9643C49.0211 99.9634 49.0042 99.9621 48.9874 99.9603L48.5016 99.9123C48.4839 99.9105 48.4664 99.9084 48.4489 99.9058L47.9657 99.8358C47.9475 99.8333 47.9295 99.8302 47.9116 99.8267L47.4323 99.7343C47.4137 99.7307 47.3953 99.7267 47.377 99.7222L46.9026 99.6066C46.884 99.6022 46.8653 99.5972 46.8468 99.5917L46.3787 99.4529C46.3599 99.4474 46.3413 99.4414 46.3228 99.4349L45.8623 99.2729C45.8437 99.2663 45.8252 99.2593 45.8069 99.2519L45.3551 99.0669C45.3369 99.0594 45.3188 99.0515 45.3009 99.0431L44.859 98.8355C44.8413 98.8272 44.8237 98.8184 44.8064 98.8091L44.3755 98.5797C44.3584 98.5706 44.3416 98.5611 44.325 98.5512L43.9059 98.3007C43.8897 98.291 43.8737 98.2809 43.8579 98.2704L43.4515 98.0001C43.4362 97.9898 43.4211 97.9793 43.4063 97.9684L43.013 97.6791C42.9986 97.6686 42.9846 97.6577 42.9707 97.6466L42.591 97.3397C42.5777 97.329 42.5646 97.3179 42.5518 97.3066L42.1858 96.9834C42.1736 96.9727 42.1615 96.9616 42.1497 96.9501L41.7976 96.612L41.7284 96.5432L39.6568 94.4716L39.3116 94.1264L36.8947 91.7096L35.1685 89.9832L32.0611 86.8759L31.3706 86.1853L31.0253 85.8401L28.9538 83.7685L26.1917 81.0065L25.8465 80.6613L25.5012 80.3159L25.1559 79.9707L24.8107 79.6255L23.7749 78.5897L23.0844 77.8991L22.7391 77.5539L21.0128 75.8277L19.2865 74.1013L16.8697 71.6845L16.1792 70.9941L15.8339 70.6487L12.7266 67.5415L12.3813 67.1961L12.0361 66.8509L11.6908 66.5057L9.27399 64.0889L7.89297 62.7079L7.54771 62.3624L6.51192 61.3266L3.40455 58.2194L3.10596 57.9105C3.09547 57.8998 3.08524 57.8888 3.07529 57.8777L2.74966 57.5139C2.73836 57.5013 2.72734 57.4884 2.71657 57.4754L2.40688 57.0977C2.39572 57.0841 2.38489 57.0702 2.3744 57.0561L2.08206 56.6649C2.07117 56.6503 2.06061 56.6353 2.05039 56.6201L1.77681 56.2158C1.76618 56.2002 1.75596 56.1843 1.74614 56.1682L1.49254 55.7512C1.48245 55.7346 1.47283 55.7179 1.46369 55.7009L1.23066 55.2718C1.22138 55.2547 1.2125 55.2373 1.20403 55.2196L0.992998 54.7793C0.984388 54.7616 0.976253 54.7436 0.968588 54.7255L0.779948 54.2751C0.772418 54.2569 0.765288 54.2384 0.758563 54.2199L0.592923 53.7607C0.586198 53.7423 0.579943 53.7236 0.574158 53.7048L0.431718 53.2379C0.426068 53.2194 0.420893 53.2007 0.416183 53.182L0.296948 52.7085C0.292373 52.6902 0.288203 52.6718 0.284438 52.6533L0.188403 52.1747C0.184773 52.1567 0.181543 52.1385 0.178718 52.1202L0.105278 51.6376C0.102588 51.62 0.100303 51.6024 0.0984179 51.5848L0.0467679 51.0993C0.0450179 51.0823 0.0436079 51.0652 0.0425329 51.0481L0.0122679 50.5609C0.0111929 50.5446 0.0105179 50.5282 0.0102479 50.5118L0.000362883 50.0238C-4.21168e-05 50.0093 -0.000107117 49.9947 0.000162883 49.98L0.00722288 49.5705C0.00749288 49.5555 0.00802788 49.5406 0.00883788 49.5257L0.0356729 49.038C0.0366129 49.0211 0.0379579 49.0042 0.0397079 48.9874L0.0877229 48.5016C0.0894729 48.4839 0.0916229 48.4664 0.0941779 48.4489L0.164188 47.9657C0.166743 47.9475 0.169768 47.9295 0.173268 47.9116L0.265673 47.4323C0.269303 47.4137 0.273338 47.3953 0.277778 47.377L0.393383 46.9027C0.397823 46.884 0.402798 46.8653 0.408313 46.8468L0.547118 46.3787C0.552633 46.3599 0.558618 46.3413 0.565073 46.3229L0.727083 45.8623C0.733673 45.8437 0.740668 45.8252 0.748063 45.807L0.933073 45.3551C0.940603 45.3369 0.948543 45.3188 0.956878 45.3009L1.16448 44.859C1.17282 44.8413 1.18163 44.8238 1.19091 44.8064L1.42031 44.3755C1.42945 44.3584 1.43894 44.3416 1.44875 44.325L1.69933 43.9059C1.70902 43.8897 1.7191 43.8737 1.7296 43.858L1.99995 43.4515C2.01017 43.4362 2.02073 43.4211 2.03162 43.4063L2.32094 43.013C2.33143 42.9986 2.34226 42.9846 2.35342 42.9707L2.66029 42.591C2.67105 42.5777 2.68208 42.5646 2.69338 42.5518L3.01659 42.1858C3.02735 42.1736 3.03844 42.1616 3.04988 42.1497L3.38802 41.7976L3.45682 41.7283L4.14742 41.0378L6.90943 38.2758L8.63574 36.5495L8.981 36.2042L13.1241 32.0611L14.1599 31.0253L15.5409 29.6443L18.9935 26.1917L19.3388 25.8464L20.7198 24.4654L22.4461 22.7391L22.7914 22.3938L24.8629 20.3223L27.9703 17.215L28.3155 16.8697L28.6608 16.5244L30.3871 14.7982L31.0776 14.1076L32.1134 13.0719L36.947 8.23821L37.6375 7.54771L40.7449 4.44036L41.7807 3.40456L42.0894 3.10596C42.1002 3.09547 42.1111 3.08525 42.1223 3.0753L42.486 2.74967C42.4987 2.73837 42.5116 2.72734 42.5247 2.71658L42.9023 2.40709C42.9159 2.39579 42.9298 2.38489 42.944 2.3744L43.3351 2.08206C43.3498 2.07117 43.3647 2.06061 43.3799 2.05039L43.7842 1.77681C43.7999 1.76618 43.8157 1.75603 43.8318 1.74634L44.2489 1.49254C44.2654 1.48245 44.2821 1.47283 44.299 1.46369L44.7281 1.23086C44.7453 1.22145 44.7627 1.2125 44.7804 1.20403L45.2206 0.992993C45.2384 0.984383 45.2564 0.976313 45.2746 0.968783L45.7249 0.779943C45.7431 0.772413 45.7615 0.765283 45.7801 0.758558L46.2393 0.592918C46.2577 0.586193 46.2763 0.580008 46.2951 0.574358L46.7621 0.431718C46.7806 0.426068 46.7993 0.420893 46.818 0.416183L47.2915 0.297148C47.3098 0.292438 47.3282 0.288203 47.3468 0.284438L47.8253 0.188403C47.8433 0.184773 47.8615 0.181543 47.8798 0.178718L48.3624 0.105278C48.38 0.102588 48.3976 0.100303 48.4152 0.0984179L48.9007 0.0467679C48.9177 0.0450179 48.9348 0.0436079 48.9519 0.0425329L49.4391 0.0122679C49.4554 0.0111929 49.4718 0.0105179 49.4882 0.0102479L49.9762 0.000362883C49.9907 -4.21168e-05 50.0053 -0.000107117 50.02 0.000162883L50.4296 0.00722288C50.4445 0.00749288 50.4595 0.00802788 50.4745 0.00883788L50.962 0.0356729C50.9789 0.0366129 50.9958 0.0379579 51.0126 0.0397079L51.4986 0.0877229C51.5161 0.0894729 51.5336 0.0916229 51.5511 0.0941779L52.0343 0.164188C52.0525 0.166743 52.0705 0.169768 52.0886 0.173268L52.5679 0.265873C52.5864 0.269368 52.6047 0.273338 52.623 0.277778L53.0973 0.393383C53.1162 0.397823 53.1348 0.402798 53.1532 0.408313L53.6213 0.547118C53.6401 0.552633 53.6588 0.558618 53.6772 0.565073L54.1378 0.727083C54.1563 0.733673 54.1748 0.740668 54.1931 0.748063L54.6448 0.933073C54.6631 0.940603 54.6812 0.948543 54.6991 0.956878L55.1411 1.16448C55.1589 1.17282 55.1763 1.18163 55.1936 1.19091L55.6245 1.42031C55.6416 1.42945 55.6584 1.43894 55.6749 1.44875L56.0942 1.69933C56.1103 1.70902 56.1263 1.7191 56.142 1.7296L56.5485 1.99995C56.5639 2.01017 56.5789 2.02073 56.5937 2.03162L56.9872 2.32094C57.0014 2.33143 57.0155 2.34226 57.0293 2.35342L57.409 2.66029C57.4223 2.67105 57.4354 2.68208 57.4482 2.69338L57.8141 3.01659C57.8264 3.02735 57.8384 3.03844 57.8503 3.04988L58.2025 3.38802L58.9621 4.14742L59.9979 5.18322L63.1053 8.29045L63.4505 8.63571L64.4863 9.6715L66.2125 11.3978L66.5579 11.743L67.5938 12.7788L68.6293 13.8146L68.9748 14.1599L69.32 14.5051L71.0462 16.2314L71.3916 16.5767L71.7368 16.9219L72.4274 17.6125L75.5346 20.7198L75.8798 21.0651L78.9872 24.1724L82.0946 27.2797L82.4398 27.625L82.785 27.9702L83.1304 28.3155L83.8208 29.006L86.9282 32.1134L88.6544 33.8397L88.9996 34.1849L90.3808 35.5659L91.0712 36.2565L94.5238 39.7091L96.5955 41.7806L96.8941 42.0894C96.9045 42.1002 96.9148 42.1111 96.9247 42.1223L97.2503 42.486C97.2616 42.4987 97.2727 42.5116 97.2834 42.5247L97.5929 42.9022C97.6042 42.9159 97.6151 42.9298 97.6256 42.944L97.918 43.3351C97.9288 43.3498 97.9394 43.3647 97.9496 43.3799L98.2232 43.7843C98.2338 43.7999 98.244 43.8157 98.2537 43.8318L98.5075 44.2489C98.5176 44.2654 98.5272 44.2821 98.5363 44.299L98.7691 44.7281C98.7786 44.7453 98.7875 44.7627 98.796 44.7804L99.007 45.2206C99.0156 45.2384 99.0237 45.2563 99.0312 45.2745L99.2201 45.7248C99.2276 45.7431 99.2347 45.7615 99.2415 45.78L99.4071 46.2393C99.4138 46.2577 99.42 46.2763 99.4257 46.2951L99.5683 46.7621C99.5738 46.7806 99.579 46.7992 99.5838 46.8179L99.7029 47.2915C99.7076 47.3097 99.7118 47.3282 99.7156 47.3467L99.8116 47.8253C99.8152 47.8433 99.8185 47.8615 99.8213 47.8798L99.8947 48.3624C99.8974 48.38 99.8997 48.3976 99.9016 48.4152L99.9532 48.9007C99.955 48.9177 99.9564 48.9347 99.9575 48.9517L99.9877 49.4391C99.9888 49.4554 99.9895 49.4717 99.9898 49.4882L99.9996 49.9762C100 49.9907 100 50.0053 99.9998 50.02L99.9928 50.4295C99.9925 50.4445 99.992 50.4595 99.9911 50.4745ZM97.645 49.5602L97.6177 49.1228L97.5717 48.6896L97.5063 48.2605L97.4212 47.8366L97.3159 47.419L97.1906 47.0078L97.0449 46.6041L96.8791 46.2084L96.6935 45.8213L96.4885 45.4435L96.2644 45.0752L96.022 44.717L95.7622 44.3691L95.4856 44.0317L95.1916 43.7034L94.9366 43.4394L92.865 41.3678L89.4126 37.9152L89.0672 37.57L88.722 37.2247L87.341 35.8437L86.9958 35.4984L85.2694 33.7721L82.162 30.6648L81.4716 29.9742L81.1264 29.629L80.781 29.2837L80.4358 28.9385L77.3283 25.8312L74.2211 22.7238L73.8759 22.3786L70.7685 19.2712L70.0779 18.5807L69.3875 17.8902L67.6611 16.1639L66.9707 15.4734L66.2801 14.7829L65.9349 14.4376L64.8991 13.4018L64.5539 13.0566L63.1729 11.6755L61.7917 10.2945L61.4465 9.94922L58.3391 6.84189L57.3035 5.80605L56.5776 5.07994L56.2431 4.75875L55.9148 4.46883L55.5757 4.19485L55.226 3.93781L54.8663 3.69833L54.4965 3.47741L54.117 3.27526L53.7286 3.09287L53.3316 2.93026L52.9266 2.78782L52.5145 2.66576L52.0956 2.56387L51.6709 2.48176L51.2412 2.41962L50.807 2.37664L50.3674 2.35223L50.002 2.34618L49.5602 2.35505L49.123 2.38229L48.6894 2.42829L48.2605 2.49366L47.8366 2.5788L47.419 2.68411L47.0078 2.8094L46.6041 2.95507L46.2084 3.12091L45.8213 3.30652L45.4435 3.51171L45.0752 3.73565L44.717 3.97796L44.369 4.23782L44.0317 4.51442L43.7034 4.80838L43.4394 5.06339L42.4036 6.0992L39.2962 9.20647L38.6057 9.89699L33.7721 14.7306L32.7363 15.7664L32.0458 16.4569L30.3195 18.1832L29.9743 18.5285L29.629 18.8737L26.5217 21.9811L24.4501 24.0526L24.1049 24.3979L22.3785 26.1242L20.9975 27.5052L20.6523 27.8505L17.1997 31.3031L15.8186 32.6841L14.7828 33.7199L10.6397 37.863L10.2945 38.2083L8.56817 39.9346L5.80602 42.6966L5.11562 43.3872L5.07991 43.4224L4.75872 43.7569L4.4688 44.0853L4.19482 44.4243L3.93779 44.7739L3.69831 45.1338L3.47739 45.5037L3.27523 45.883L3.09285 46.2715L2.93023 46.6685L2.78779 47.0734L2.66573 47.4856L2.56365 47.9044L2.48174 48.3291L2.4196 48.759L2.37662 49.193L2.35221 49.6328L2.34616 49.998L2.35503 50.4398L2.38227 50.877L2.42827 51.3106L2.49364 51.7395L2.57878 52.1634L2.68409 52.5813L2.80938 52.9922L2.95505 53.3959L3.12089 53.7916L3.3065 54.1787L3.51148 54.5566L3.73563 54.9248L3.97794 55.2831L4.2378 55.631L4.5144 55.9683L4.80836 56.2966L5.06337 56.5606L8.17066 59.6681L9.20645 60.7039L9.55171 61.0491L10.9328 62.4301L13.3496 64.8469L13.6948 65.1921L14.0401 65.5375L14.3853 65.8827L17.4927 68.9901L18.5285 70.0257L20.9453 72.4425L22.6716 74.1689L24.3979 75.8951L24.7431 76.2405L25.4336 76.9309L26.4694 77.9667L26.8147 78.3119L27.1599 78.6573L27.5052 79.0025L27.8505 79.3477L30.6125 82.1099L32.6841 84.1813L33.0294 84.5267L33.7199 85.2171L36.8272 88.3246L38.5535 90.0508L40.9703 92.4676L41.3156 92.813L43.3872 94.8844L43.4224 94.9201L43.7569 95.2413L44.0852 95.5312L44.4243 95.8052L44.774 96.0622L45.1338 96.3017L45.5036 96.5228L45.8829 96.7248L46.2715 96.9072L46.6684 97.0698L47.0734 97.2122L47.4855 97.3343L47.9044 97.4362L48.3291 97.5183L48.759 97.5804L49.193 97.6234L49.6326 97.6478L49.998 97.6539L50.4398 97.645L50.8772 97.6178L51.3104 97.5717L51.7395 97.5064L52.1634 97.4212L52.581 97.3161L52.9922 97.1906L53.3959 97.045L53.7915 96.8791L54.1787 96.6935L54.5566 96.4885L54.9248 96.2644L55.2829 96.0221L55.6309 95.7622L55.9683 95.4856L56.2967 95.1917L56.5606 94.9366L61.7396 89.7578L62.0848 89.4126L62.43 89.0672L62.7752 88.722L63.1206 88.3768L64.5016 86.9956L76.9309 74.5664L77.2763 74.2212L80.7287 70.7685L82.8003 68.6969L83.1457 68.3517L83.4909 68.0065L83.8361 67.6611L84.1813 67.3159L84.5267 66.9707L84.8719 66.6253L85.2171 66.2801L87.9793 63.5181L90.0507 61.4465L90.3961 61.1013L94.194 57.3035L94.5392 56.9581L94.9201 56.5776L95.2413 56.2433L95.5312 55.9148L95.8052 55.5757L96.0622 55.2262L96.3017 54.8663L96.5228 54.4963L96.7248 54.1172L96.9071 53.7286L97.0698 53.3316L97.2122 52.9266L97.3343 52.5145L97.4363 52.0956L97.5182 51.6709L97.5804 51.2412L97.6234 50.807L97.6478 50.3674L97.6538 50.002L97.645 49.5602Z" fill="#ffffff"/>
</svg>
